<svg width="47" height="61" viewBox="0 0 47 61" fill="none" xmlns="http://www.w3.org/2000/svg">
<path fill-rule="evenodd" clip-rule="evenodd" d="M45.6908 16.5627C44.4679 16.1083 43.1781 15.8548 41.8725 15.8121C37.6748 15.5119 30.9485 15.5119 27.9393 15.5119C28.9761 13.2351 31.0243 8.75654 32.0105 6.70492C32.137 6.40468 32.668 5.72915 32.668 5.20373C32.668 4.67832 31.6312 3.6525 30.9232 4.87847C30.9232 5.02859 30.645 5.40389 30.3922 5.9293C28.9761 8.75654 25.5118 16.0873 25.5118 16.0873C25.4363 16.2347 25.3969 16.3975 25.3969 16.5627C25.3969 16.7279 25.4363 16.8908 25.5118 17.0381C25.6007 17.1754 25.7247 17.2871 25.8712 17.3618C26.0177 17.4365 26.1816 17.4715 26.3463 17.4634C32.0381 17.4129 37.7283 17.6802 43.3897 18.2641H43.7437C43.6436 18.4529 43.5339 18.6366 43.415 18.8145C41.8295 20.8248 40.1415 22.7538 38.3576 24.5941C35.1461 27.9717 31.2266 31.8498 27.9393 35.0273C25.1325 37.8546 10.8706 51.04 4.59942 56.0189L3.61323 56.7695C4.20648 54.7769 5.05635 52.8681 6.14193 51.09C8.99936 45.8859 13.5763 39.0555 17.6981 32.3252C17.9585 31.9921 18.0998 31.5829 18.0998 31.1618C18.0998 30.7407 17.9585 30.3314 17.6981 29.9984C17.3569 29.5879 16.8839 29.3053 16.3579 29.1977C15.3918 29.0871 14.416 29.0871 13.4499 29.1977L5.18103 29.3979H3.53737C3.73967 28.9475 4.04311 28.3971 4.24541 27.8466C6.52124 21.5166 12.6154 6.6799 14.5625 2.82685C15.6498 2.55163 18.2291 2.50159 18.4567 2.47657C20.3532 2.32645 22.3003 2.25139 24.2474 2.20135H33.0979C33.2075 2.20186 33.3161 2.17961 33.4165 2.13602C33.5169 2.09244 33.607 2.02849 33.6808 1.94832C33.7547 1.86815 33.8108 1.77354 33.8454 1.67059C33.88 1.56765 33.8924 1.45866 33.8818 1.35068C33.8924 1.2427 33.88 1.13371 33.8454 1.03077C33.8108 0.927826 33.7547 0.833212 33.6808 0.753041C33.607 0.67287 33.5169 0.608926 33.4165 0.565341C33.3161 0.521756 33.2075 0.499499 33.0979 0.500009H22.7302C21.2636 0.500009 19.7716 0.500009 18.2544 0.675147H14.1832C13.7305 0.715328 13.3123 0.93122 13.02 1.27562C11.1993 4.50318 4.39713 20.1906 1.84314 26.7958C1.46813 27.6936 1.14726 28.6126 0.882234 29.548C0.793583 29.81 0.779727 30.0911 0.84219 30.3604C0.904653 30.6297 1.04101 30.8767 1.23625 31.0742C1.65763 31.4215 2.16307 31.6543 2.7029 31.7497C3.54393 31.8283 4.39057 31.8283 5.2316 31.7497L13.3993 31.7748C13.7597 31.8167 14.1153 31.8921 14.4614 31.9999C9.63154 39.681 4.34655 47.3621 1.96958 52.5412C1.20325 54.0179 0.714849 55.6202 0.528216 57.2699C0.453266 57.8301 0.528261 58.3999 0.745703 58.9224C0.963144 59.4449 1.31541 59.9018 1.76728 60.2473C2.04614 60.4127 2.36515 60.5 2.69026 60.5C3.01536 60.5 3.33437 60.4127 3.61323 60.2473C4.63705 59.6639 5.60233 58.9853 6.49595 58.2207C12.7671 53.2167 27.029 39.681 29.8611 36.8538C34.3875 32.3502 39.976 26.4205 43.4656 22.4674C44.8244 21.1279 45.8614 19.5032 46.5 17.7136C46.4792 17.4684 46.3934 17.2329 46.2514 17.0308C46.1093 16.8288 45.916 16.6673 45.6908 16.5627Z" fill="#F6E7B1"/>
</svg>
